<?xml version="1.0" standalone="no"?><!DOCTYPE svg PUBLIC "-//W3C//DTD SVG 1.1//EN" "http://www.w3.org/Graphics/SVG/1.1/DTD/svg11.dtd"><svg t="1652699271685" class="icon" viewBox="0 0 1027 1024" version="1.1" xmlns="http://www.w3.org/2000/svg" p-id="6189" xmlns:xlink="http://www.w3.org/1999/xlink" width="200.5859375" height="200"><defs><style type="text/css">@font-face { font-family: feedback-iconfont; src: url("//at.alicdn.com/t/font_1031158_u69w8yhxdu.woff2?t=1630033759944") format("woff2"), url("//at.alicdn.com/t/font_1031158_u69w8yhxdu.woff?t=1630033759944") format("woff"), url("//at.alicdn.com/t/font_1031158_u69w8yhxdu.ttf?t=1630033759944") format("truetype"); }
</style></defs><path d="M631.808 167.936C567.296 103.424 463.36 85.504 399.36 150.016c-64 64-54.784 189.952 29.696 242.176 2.56 1.536-57.856-129.024 12.288-199.68 57.344-58.88 145.408-44.544 190.464-24.576z" fill="#FFFFFF" p-id="6190"></path><path d="M637.952 627.2c-11.776 0-23.04-4.608-31.744-13.312L393.216 401.408C322.56 330.24 322.56 215.552 393.216 144.384c67.072-67.072 173.568-70.144 244.736-10.752 71.168-59.904 177.664-55.808 244.736 10.752 34.304 34.304 53.248 79.872 53.248 128s-18.944 94.208-53.248 128.512l-212.992 212.992c-8.704 8.704-19.968 13.312-31.744 13.312z m-116.224-502.272c-37.888 0-75.776 14.336-104.448 43.52C389.12 196.096 373.76 232.96 373.76 272.384s15.36 76.8 43.52 104.448l212.992 212.992c4.096 4.096 11.264 4.096 15.872 0l212.992-212.992c27.648-27.648 43.52-65.536 43.52-104.448 0-39.424-15.36-76.8-43.008-104.448-57.856-57.856-151.552-57.856-208.896 0a16.9984 16.9984 0 0 1-24.064 0c-28.16-27.648-65.536-43.008-104.96-43.008z" fill="#2C2C2C" p-id="6191"></path><path d="M758.784 344.064c-81.408-81.408-212.48-81.408-293.888 0-81.408-81.408-212.48-81.408-293.888 0s-81.408 212.48 0 293.888L439.296 906.24c13.824 13.824 36.352 13.824 50.176 0l268.288-268.288c81.92-81.92 81.92-212.992 1.024-293.888z" fill="#C92188" p-id="6192"></path><path d="M456.192 353.28c-81.408-81.408-212.48-98.816-293.888-17.92C81.92 416.256 93.696 574.976 199.68 641.536c3.584 2.048-72.704-162.816 15.36-251.904C288.768 315.392 399.872 327.68 456.192 353.28z" fill="#FFFFFF" p-id="6193"></path><path d="M464.384 933.376c-13.824 0-27.136-5.632-36.864-15.36L158.72 649.728c-41.984-43.008-65.536-99.328-65.536-159.232s23.552-116.224 65.536-158.72C201.216 289.28 257.536 266.24 317.44 266.24c54.272 0 105.984 19.456 146.944 54.784 40.96-35.328 92.16-54.784 146.944-54.784 59.904 0 116.224 23.552 158.72 65.536 41.984 41.984 65.536 98.816 65.536 158.72s-23.552 116.224-65.536 158.72L501.76 917.504c-10.24 10.24-23.04 15.872-37.376 15.872zM317.952 299.52c-51.2 0-98.816 19.968-134.656 55.808-36.352 36.352-55.808 83.968-55.808 134.656S147.456 588.8 183.296 624.64l268.288 268.288c7.168 7.168 18.944 7.168 26.112 0l268.8-268.288c36.352-36.352 55.808-84.48 55.808-135.168s-19.968-98.816-55.808-134.656c-36.352-36.352-83.968-55.808-134.656-55.808s-98.816 19.968-134.656 55.808c-3.584 3.584-7.68 5.12-11.776 5.12s-8.704-1.536-11.776-5.12C416.768 319.488 368.64 299.52 317.952 299.52z m457.216 531.456c-7.168 0-12.8-5.632-12.8-12.8s5.632-12.8 12.8-12.8c20.992 0 37.888-16.896 37.888-37.888 0-7.168 5.632-12.8 12.8-12.8s12.8 5.632 12.8 12.8c-0.512 34.816-28.672 63.488-63.488 63.488z m25.088 57.344c-7.168 0-12.8-5.632-12.8-12.8s5.632-12.8 12.8-12.8c38.912 0 70.144-31.744 70.144-70.144 0-7.168 5.632-12.8 12.8-12.8s12.8 5.632 12.8 12.8c-0.512 52.736-43.008 95.744-95.744 95.744zM160.256 215.04c-7.168 0-12.8-5.632-12.8-12.8 0-34.816 28.16-62.976 62.976-62.976 7.168 0 12.8 5.632 12.8 12.8s-5.632 12.8-12.8 12.8c-20.992 0-37.888 16.896-37.888 37.888 0 6.656-5.12 12.288-12.288 12.288z m-57.344-16.896c-7.168 0-12.8-5.632-12.8-12.8 0-52.736 42.496-95.232 95.232-95.232 7.168 0 12.8 5.632 12.8 12.8s-5.632 12.8-12.8 12.8c-38.912 0-70.144 31.744-70.144 70.144 0 6.656-5.12 12.288-12.288 12.288z" fill="#2C2C2C" p-id="6194"></path></svg>